<?xml version="1.0" encoding="utf-8"?>
<!-- Generator: Adobe Illustrator 23.0.2, SVG Export Plug-In . SVG Version: 6.00 Build 0)  -->
<svg version="1.1" id="Layer_1" xmlns="http://www.w3.org/2000/svg" xmlns:xlink="http://www.w3.org/1999/xlink" x="0px" y="0px"
	 viewBox="0 0 1412.33 643.64" style="enable-background:new 0 0 1412.33 643.64;" xml:space="preserve">
<style type="text/css">
	.st0{fill:none;stroke:#663300;stroke-width:3.7;stroke-miterlimit:10;}
	.st1{fill:#FCD20E;}
	.st2{fill:#003594;}
	.st3{fill:#CF0821;}
	.st4{fill:#FF610D;}
	.st5{font-family:'MonotypeCorsiva';}
	.st6{font-size:150px;}
	.st7{font-size:180px;}
	.st8{fill:#00213D;}
	.st9{fill:#FCD559;}
	.st10{fill:#FEDFC3;}
	.st11{fill:#F9C9A5;}
	.st12{fill:#FCC79F;}
	.st13{fill:#FFFFFF;}
	.st14{fill:#00259B;}
	.st15{fill:#FFFEFD;}
	.st16{fill:#664436;}
	.st17{fill:#222223;}
	.st18{fill:none;stroke:#000000;stroke-width:3;stroke-miterlimit:10;}
	.st19{fill:none;stroke:#000000;stroke-miterlimit:10;}
	.st20{fill:#DFB28B;}
	.st21{fill:#B22F2F;}
	.st22{fill:#3B3B4F;}
	.st23{fill:#D79E73;}
	.st24{fill:#5C3828;}
	.st25{fill:#D8D8D8;}
	.st26{fill:#29525B;}
</style>
<g>
	<line class="st0" x1="330.62" y1="302.04" x2="404.85" y2="174.51"/>
	
		<rect x="374.58" y="205.7" transform="matrix(0.8642 0.5031 -0.5031 0.8642 186.1687 -190.8338)" class="st1" width="144.2" height="87.67"/>
	
		<rect x="370.29" y="245.06" transform="matrix(0.8643 0.503 -0.503 0.8643 189.2671 -187.6624)" class="st2" width="144.2" height="23.67"/>
	
		<rect x="358.38" y="265.52" transform="matrix(0.8643 0.503 -0.503 0.8643 197.9437 -178.8935)" class="st3" width="144.2" height="23.67"/>
</g>
<g>
	<g>
	</g>
</g>
<text transform="matrix(1 0 0 1 499.1128 366.918)" class="st4 st5 st6">Carlito’s</text>
<text transform="matrix(1 0 0 1 343.9077 505.1864)" class="st4 st5 st7">Adventures</text>
<g>
	<path class="st8" d="M1285.56,505.04c-27.51,0-55.01,0-82.52,0c-7.87,0-13.12-5.32-11.66-11.83c4.24-19.78,8.47-39.55,12.71-59.33
		c1.89-8.31,8.79-15.11,15.32-15.11c16.59,0,33.17,0,49.76,0c6.54,0,13.43,6.8,15.32,15.11c4.24,19.78,8.47,39.55,12.71,59.33
		C1298.68,499.72,1293.43,505.04,1285.56,505.04z"/>
	<circle class="st9" cx="1245.67" cy="340.28" r="62.09"/>
	<circle class="st10" cx="1184.11" cy="368.34" r="9.02"/>
	<g>
		<path class="st10" d="M1301.46,352.73c5.68,32.31-15.47,50.39-56.74,49.66c-41.26,0.73-62.42-17.35-56.74-49.66
			c4.24-32.09,25.4-51.56,56.74-51.01C1276.06,301.17,1297.22,320.63,1301.46,352.73z"/>
	</g>
	<path class="st11" d="M1183.06,364.53c2.87,0,5.2,2.33,5.2,5.2c0,0.68-0.13,1.33-0.37,1.92c0.77-0.91,1.24-2.08,1.24-3.36
		c0-2.87-2.33-5.2-5.2-5.2c-2.19,0-4.06,1.36-4.83,3.28C1180.05,365.25,1181.47,364.53,1183.06,364.53z"/>
	<circle class="st10" cx="1304.57" cy="367.38" r="9.02"/>
	<path class="st11" d="M1304.43,363.57c-2.87,0-5.2,2.33-5.2,5.2c0,0.68,0.13,1.33,0.37,1.92c-0.77-0.91-1.24-2.08-1.24-3.36
		c0-2.87,2.33-5.2,5.2-5.2c2.19,0,4.06,1.36,4.83,3.28C1307.44,364.29,1306.02,363.57,1304.43,363.57z"/>
	
		<ellipse transform="matrix(0.1911 -0.9816 0.9816 0.1911 615.5527 1486.0531)" class="st12" cx="1209.45" cy="369.53" rx="3.84" ry="8.46"/>
	<path class="st13" d="M1266.9,505.04h-45.2c-6.13,0-11.14-5.01-11.14-11.14v-65.87c0-6.13,5.01-11.14,11.14-11.14h45.2
		c6.13,0,11.14,5.01,11.14,11.14v65.87C1278.04,500.03,1273.03,505.04,1266.9,505.04z"/>
	
		<ellipse transform="matrix(0.9816 -0.1911 0.1911 0.9816 -47.0341 251.4743)" class="st12" cx="1279.98" cy="369.53" rx="8.46" ry="3.84"/>
	<g>
		<path class="st10" d="M1252.85,416.89c-2.56,7.88-13.7,7.88-16.26,0c0.58-4.84,1.16-9.68,1.74-14.52c4.26,0,8.52,0,12.78,0
			C1251.68,407.22,1252.27,412.05,1252.85,416.89z"/>
	</g>
	<g>
		<circle class="st14" cx="1219.54" cy="354.09" r="6.88"/>
		<circle cx="1219.96" cy="354.81" r="3.8"/>
		<circle class="st15" cx="1217.47" cy="351.65" r="0.89"/>
		<circle class="st15" cx="1222.37" cy="357.89" r="0.45"/>
		<circle class="st14" cx="1269.89" cy="354.09" r="6.88"/>
		<circle cx="1270.32" cy="354.81" r="3.8"/>
		<circle class="st15" cx="1267.83" cy="351.65" r="0.89"/>
		<circle class="st15" cx="1272.73" cy="357.89" r="0.45"/>
		<path class="st16" d="M1222.08,341.66c0.22,0.12,0.42,0.24,0.62,0.38c-0.44-0.78-1.09-1.46-1.94-1.91
			c-2.35-1.25-5.28-0.36-6.53,1.99c-0.19,0.36-0.32,0.73-0.41,1.11C1215.82,340.88,1219.25,340.15,1222.08,341.66z"/>
		<path class="st16" d="M1268.69,340.62c-0.23,0.09-0.45,0.18-0.67,0.29c0.54-0.72,1.27-1.3,2.17-1.64c2.5-0.93,5.28,0.34,6.21,2.83
			c0.14,0.38,0.22,0.77,0.26,1.16C1275,340.67,1271.7,339.49,1268.69,340.62z"/>
	</g>
	<path class="st13" d="M1259.08,384.78c0,0-3.17,8.03-14.36,8.03c-13.05,0-14.36-8.03-14.36-8.03s7.13,0,15.06,0
		C1253.35,384.78,1259.08,384.78,1259.08,384.78z"/>
	<path class="st9" d="M1312.57,305.09c1.7-2.61-2.57-4.17-2.57-4.17s5.35,0,5.87-8.59c0.51-8.59-6.49-9.04-6.49-9.04
		s-0.82-5.58-5.35-6.53c-4.53-0.95-10.86,9.85-15.24,13.06s-21.01-2.06-22.76-9.45c-1.75-7.39-5.92-6.78-7.83-7.74
		c-1.9-0.95-7.52,2.91-7.52,2.91c-1.49-6.58-5.77-8.49-8.24-8.94s-4.22,2.81-4.22,2.81s-1.7-5.83-8.75-7.13
		c-7.05-1.31-8.65,5.02-8.65,5.02c-5.71-3.22-11.48,0.7-13.28,2.81s-1.24,10.45-1.24,10.45s-12.46-2.11-14.93,5.53
		c-2.47,7.64,1.34,13.97,1.34,13.97s-9.42,3.37-8.55,8.54c0.88,5.18,8.13,7.03,8.13,7.03c1.04,0.66,9.68,0.3,13.47,0.1
		c1.13-0.06,2.24-0.27,3.31-0.63c5.66-1.91,24.26-7.05,31.71-3.28c0,0,14.3,6.81,42.94,9.65
		C1313.19,324.39,1312.57,305.09,1312.57,305.09z"/>
	<rect x="1220.05" y="505.04" class="st17" width="12.74" height="42.02"/>
	<rect x="1256.64" y="505.04" class="st17" width="12.74" height="42.02"/>
	
		<rect x="1239.29" y="490.4" transform="matrix(-1.836970e-16 1 -1 -1.836970e-16 1757.0768 -734.2577)" class="st17" width="12.74" height="42.02"/>
	<path class="st13" d="M1228.23,562.09h-16.01c-2.52,0-4.56-2.04-4.56-4.56l0,0c0-5.78,4.69-10.47,10.47-10.47h14.66v10.47
		C1232.79,560.05,1230.75,562.09,1228.23,562.09z"/>
	<path class="st13" d="M1261.2,562.09h16.01c2.52,0,4.56-2.04,4.56-4.56l0,0c0-5.78-4.69-10.47-10.47-10.47h-14.66v10.47
		C1256.64,560.05,1258.68,562.09,1261.2,562.09z"/>
	<line class="st18" x1="1251.98" y1="437.39" x2="1266.52" y2="437.39"/>
</g>
<g>
	<line class="st19" x1="279.77" y1="372.71" x2="380.28" y2="113.85"/>
	<line class="st19" x1="279.77" y1="372.71" x2="112.4" y2="156.04"/>
	<line class="st19" x1="279.77" y1="372.71" x2="176.86" y2="125.82"/>
	<line class="st19" x1="279.77" y1="372.71" x2="258.72" y2="108.23"/>
	<line class="st19" x1="279.77" y1="372.71" x2="327.66" y2="104.47"/>
	<line class="st19" x1="279.77" y1="372.71" x2="76.25" y2="191.4"/>
	
		<rect x="313.2" y="294.18" transform="matrix(-0.9044 -0.4266 0.4266 -0.9044 467.1462 754.4521)" class="st20" width="9.76" height="61.45"/>
	
		<ellipse transform="matrix(0.0626 -0.998 0.998 0.0626 18.0349 607.3524)" class="st20" cx="332.33" cy="294.08" rx="8.25" ry="9.69"/>
	
		<rect x="218.84" y="318.25" transform="matrix(0.611 -0.7916 0.7916 0.611 -189.2321 312.8636)" class="st20" width="9.76" height="61.45"/>
	<path class="st21" d="M231.49,340.52c26.65-6.8,53.3-13.6,79.96-20.39c7.63-1.95,14.03,1.91,14.22,8.58
		c0.78,20.21,1.56,40.42,2.35,60.63c0.22,8.52-4.78,16.81-11.11,18.43c-16.07,4.1-32.14,8.2-48.21,12.3
		c-6.33,1.62-14.7-3.27-18.58-10.85c-8.99-18.11-17.99-36.23-26.98-54.34C220.09,348.92,223.86,342.46,231.49,340.52z"/>
	<path class="st22" d="M314.68,408.32l-43.8,11.17c-5.94,1.51-12.03-2.1-13.55-8.04l-16.28-63.82c-1.51-5.94,2.1-12.03,8.04-13.55
		l43.79-11.17c5.94-1.51,12.03,2.1,13.55,8.04l16.28,63.82C324.23,400.71,320.62,406.81,314.68,408.32z"/>
	<g>
		<path d="M313.71,235.75c11.04,36.76,0.03,69.46-43.69,74.65c-21.19,3.16-43.87,2.28-59.32-3.88
			c-15.79-6.15-24.36-17.57-25.31-35.16c-1.03-23.3,8.47-48.11,23.71-62.15c0.39-0.36,0.78-0.71,1.19-1.08
			c5.02-4.8,6.35-9.85,13.25-8.73c0.25-0.11,0.49-0.23,0.74-0.34c1.25-0.58,2.53-1.13,3.84-1.63c0.44-0.17,0.88-0.34,1.39-0.59
			c6.41-2.6,6.76-14.97,14.72-12.11c1.92,0.48-1.41,5.07,0.32,8.41c0,0,0.84-0.21,0.9-0.06c0.39-0.01,0.82-0.06,1.25-0.11
			c1.28-0.14,2.56-0.25,3.84-0.33c0.47-0.03,0.94-0.05,1.42-0.07c5.89-0.08,11.44-3.58,16.95,0.3c0.44-0.19,0.91-0.34,1.37-0.47
			c5.53-1.48,9.18,0.92,13.27,5.96c0.45,0.21,0.91,0.43,1.35,0.66C298.32,205.65,308.29,218.13,313.71,235.75z"/>
	</g>
	<circle class="st20" cx="200.24" cy="296.3" r="9.02"/>
	<g>
		<path class="st20" d="M308.53,250.67c8.86,30.97-0.12,59.17-38.11,63.94c-18.41,2.86-38.16,2.18-51.43-3.04
			c-13.6-5.21-20.71-14.96-21.35-29.89c-0.35-30.69,16.11-59.64,45.35-65.14c8.49-1.93,17.1-2.26,25.05-1.22
			c0.53,0.07,1.06,0.15,1.58,0.23c3.43,1.34,7.72-0.08,10.49,2.68c0.47,0.18,0.94,0.36,1.4,0.54
			C294.54,223.88,303.81,234.65,308.53,250.67z"/>
	</g>
	<path class="st23" d="M198.28,292.87c2.78-0.71,5.62,0.97,6.33,3.75c0.17,0.66,0.2,1.32,0.12,1.95c0.52-1.07,0.68-2.32,0.37-3.56
		c-0.71-2.78-3.54-4.46-6.33-3.75c-2.12,0.54-3.6,2.32-3.87,4.37C195.54,294.31,196.74,293.26,198.28,292.87z"/>
	<circle class="st20" cx="316.72" cy="265.59" r="9.02"/>
	<path class="st23" d="M315.64,261.94c-2.78,0.71-4.46,3.54-3.75,6.33c0.17,0.66,0.46,1.25,0.84,1.77
		c-0.97-0.69-1.71-1.71-2.03-2.95c-0.71-2.78,0.97-5.62,3.75-6.33c2.12-0.54,4.27,0.31,5.49,1.98
		C318.74,261.89,317.18,261.55,315.64,261.94z"/>
	
		<ellipse transform="matrix(0.9984 -0.0574 0.0574 0.9984 -16.3378 13.3956)" class="st23" cx="225.09" cy="291.19" rx="8.46" ry="3.84"/>
	
		<ellipse transform="matrix(0.9039 -0.4278 0.4278 0.9039 -88.9103 151.848)" class="st23" cx="293.43" cy="273.76" rx="8.46" ry="3.84"/>
	<g>
		<path class="st20" d="M278.63,326.57c-2.51,7.28-10.84,11.26-16.33,8.24c-0.73-7.08-0.93-13.64-1.33-18.72
			c4.1,0.35,9-2.08,12.81-3.59C275.42,318.43,277.34,323.44,278.63,326.57z"/>
	</g>
	<g>
		<circle class="st24" cx="229.36" cy="272.94" r="7.31"/>
		<circle cx="229.99" cy="273.58" r="4.04"/>
		<circle class="st15" cx="226.59" cy="270.97" r="0.95"/>
		<circle class="st15" cx="233.29" cy="276.12" r="0.47"/>
		<circle class="st24" cx="281.22" cy="259.72" r="7.31"/>
		<circle cx="281.85" cy="260.35" r="4.04"/>
		<circle class="st15" cx="278.45" cy="257.74" r="0.95"/>
		<circle class="st15" cx="285.15" cy="262.89" r="0.47"/>
		<path class="st24" d="M225.34,257.89c0.25-0.06,0.51-0.11,0.76-0.15c-0.9-0.3-1.9-0.37-2.89-0.11c-2.75,0.7-4.4,3.49-3.7,6.24
			c0.11,0.42,0.28,0.8,0.47,1.17C219.87,261.76,222.03,258.73,225.34,257.89z"/>
		<path class="st24" d="M278.12,244.43c-0.25,0.06-0.5,0.14-0.74,0.23c0.65-0.7,1.49-1.23,2.48-1.48c2.75-0.7,5.54,0.96,6.24,3.7
			c0.11,0.42,0.14,0.84,0.14,1.25C284.78,245.2,281.42,243.58,278.12,244.43z"/>
	</g>
	
		<ellipse transform="matrix(0.969 -0.2472 0.2472 0.969 -65.7396 74.4)" class="st13" cx="263.49" cy="299.06" rx="7.79" ry="10.25"/>
	<path d="M281.56,194.11c5.42,6.59,1.43,15.23,6.5,21.65c0.29,0.21,0.59,0.43,0.89,0.65c0.91,0.65,1.86,1.31,2.55,1.99
		c0.43,0.3,0.86,0.61,1.29,0.92s0.86,0.62,1.29,0.94s0.84,0.64,1.26,0.97c2.1,1.53,4.23,3.18,6.05,5.06
		c0.37,0.38,0.72,0.76,1.06,1.16c5.96,4.69,7.93,12.44,9.55,20.03c0.1,0.57,0.18,1.15,0.26,1.73c0.74,5.81,0.33,11.79-1.26,17.36
		c-0.75-4.28-1.15-9-1.94-13.59c-0.1-0.57-0.2-1.15-0.32-1.72c-2.95-9.17-9.53-14.71-16.5-20.78c-0.45-0.25-0.9-0.51-1.35-0.76
		c-5.82-3.3-11.62-6.66-19.11-6.57c-0.31,0.06-0.61,0.13-0.92,0.2c-0.31,0.08-0.62,0.16-0.94,0.25c-0.29,0.16-0.59,0.32-0.89,0.48
		c-3.46,1.82-7.39,3.54-11.67,5.09c-0.53,0.19-1.04,0.38-1.41,0.56c-3.97,3.7-9.79,5.18-16.24,5.17c-0.51,0.02-1.03,0.03-1.56,0.04
		c-1.07,0.02-2.2,0.01-3.42,0c-0.53,0.08-1.05,0.16-1.58,0.23c-3.13,0.43-6.14,0.7-8.98,0.82c-0.35,0.01-0.7,0.03-1.04,0.04
		c-0.6-0.04-1.19-0.05-1.78-0.05c-0.59,0.01-1.17,0.03-1.75,0.08c-0.58,0.2-1.14,0.41-1.7,0.63c-0.55,0.22-1.1,0.46-1.63,0.71
		c-8.47,4.05-12.08,10.56-14.41,17.82c-0.18,0.56-0.35,1.12-0.52,1.69c-1.61,3.32-2.27,6.69-2.53,10.11
		c-0.04,0.57-0.07,1.14-0.1,1.72c-1.67,8.31,2.25,15.57,7.13,22.58c-9.69,2.47-10.98-14.74-10.19-22.2
		c0.01-0.53,0.02-1.06,0.03-1.59c0.02-2.64-0.1-5.24-0.65-7.75c-0.19-0.57-0.44-1.1-0.74-1.62c0.22,0.46,0.4,0.92,0.54,1.41
		c0.27,2.84,0.34,5.94,0.38,9.13c0.01,0.53,0.01,1.07,0.02,1.61c-0.36,6.28,1.12,12.09,2.6,17.91c0.46-6.31-2.97-11.63-2.44-17.94
		c-0.06-0.53-0.12-1.06-0.18-1.57c-0.36-3.11-0.69-6.15-0.73-9.04c-0.1-0.51-0.23-1.01-0.38-1.52c-0.45-1.5-1.09-3.01-2.01-4.58
		c-0.74-2.91,0.7-5.34,1.85-8.45c0.23-0.47,0.48-0.93,0.75-1.37c1.59-2.68,3.72-5.05,6-7.39c0.29-0.4,0.55-0.8,0.79-1.19
		s0.46-0.79,0.66-1.18c0.06-0.52,0.05-1.03-0.02-1.53c-0.07-0.5-0.2-1-0.39-1.49c-0.19-0.28-0.37-0.54-0.54-0.8
		c-0.33-0.52-0.57-1.07-0.72-1.66c-0.57-2.25,0.3-4.75,2.36-7.3c0.29-0.37,0.61-0.73,0.95-1.1c0.32-0.4,0.66-0.81,1.01-1.23
		c0.4-2.02,0.76-4.18,1.21-6.34c0.11-0.54,0.23-1.08,0.36-1.63c2.4-9.28,7.82-16.37,17.79-21.77c-1.99,4.32-8.04,4.91-10.03,9.23
		c0.23,0.89,0.46,1.79,1.65,2.44c-1.82-7.15,8.78-6.05,9.35-11.91c0.91,3.58-5.64,6.2-2.28,7.25c1.5,0.81,3.04-1.37,4.54-3.74
		c0.3-0.47,0.6-0.95,0.9-1.42c3.16-5.61,10.23-10.27,17.18-7.28c-1.2-0.65-1.43-1.54-0.68-2.68c0.91,3.58,5.02,3.48,6.1,0.64
		c0.32-0.25,0.65-0.47,1-0.62c0.35-0.15,0.72-0.23,1.11-0.21c0.23,0.89,3.59,1.94,0.91,3.58c0.74-1.14,0.28-2.93,0.06-3.82
		c1.57,0.08,2.69,0.44,3.47,1.01c0.39,0.28,0.68,0.61,0.93,0.98c0.91,1.07,1,2.18,0.67,3.31c-0.11,0.37-0.26,0.75-0.45,1.13
		c-0.62,1.14-0.62,1.14-1.36,2.28c3.14,0.15,4.39-3.02,6.59-5.01c0.33-0.42,0.65-0.81,0.97-1.17c1.28-1.41,2.5-2.1,4.12-0.61
		c0.41,0.44,0.56,1.04,0.55,1.76c0,0.36-0.05,0.75-0.11,1.16c-0.04,2.69,2.81,5.77,2.58,9.03c-0.02,0.38-0.07,0.78-0.11,1.18
		c-0.12,1.22-0.14,2.48,0.92,3.29c0.22,0.46,0.5,0.94,0.84,1.42c0.32,0.06,0.62,0.12,0.92,0.16c2.56,1.81,1.65-1.76,2.62-2.01
		c-1.65-2.44-1.37-5.37,1.31-7c0.97-0.25,1.94-0.49,2.48,1.57C281.11,193.33,281.33,193.69,281.56,194.11z"/>
	
		<rect x="272.57" y="417.94" transform="matrix(0.969 -0.2472 0.2472 0.969 -98.5335 82.3966)" class="st25" width="12.74" height="31.5"/>
	
		<rect x="308.03" y="408.89" transform="matrix(0.969 -0.2472 0.2472 0.969 -95.1981 90.8796)" class="st25" width="12.74" height="31.5"/>
	
		<rect x="288.91" y="398.83" transform="matrix(0.2472 0.969 -0.969 0.2472 629.1193 29.9598)" class="st25" width="12.74" height="42.02"/>
	
		<ellipse transform="matrix(0.8601 -0.5102 0.5102 0.8601 -139.7778 146.3919)" class="st20" cx="196.99" cy="328.02" rx="9.69" ry="8.25"/>
	<path class="st4" d="M76.25,191.4L1.98,132.42c0,0,9.75-60.67,70.82-46.72l40.85,70.05C113.65,155.75,83.88,160.35,76.25,191.4z"/>
	<path class="st26" d="M113.61,155.73L72.8,85.7c0,0,43.83-64.21,91.53-37.27l12.53,77.39
		C176.86,125.82,133.62,129.65,113.61,155.73z"/>
	<path class="st4" d="M176.86,125.82l-12.53-77.39c0,0,29.1-55.57,101.19-11.77l-6.8,71.57
		C258.72,108.23,205.14,106.4,176.86,125.82z"/>
	<path class="st26" d="M258.72,108.23l6.8-71.57c0,0,57.17-52.6,86.97-9.36l-24.83,77.17C327.66,104.47,287.01,88.81,258.72,108.23z
		"/>
	<path class="st4" d="M327.66,104.47l24.83-77.17c0,0,65.16-20.88,78.34,27.22l-50.55,59.33
		C380.28,113.85,361.37,95.82,327.66,104.47z"/>
	<path class="st13" d="M276.66,450.53l12.35-3.15c0,0,12.8,10.59,0,14.52C289.01,461.89,268.36,469.54,276.66,450.53z"/>
	<path class="st13" d="M311.91,441.48l12.35-3.15c0,0,12.8,10.59,0,14.52C324.25,452.85,303.6,460.5,311.91,441.48z"/>
</g>
</svg>
