<?xml version="1.0" encoding="utf-8"?>
<!-- Generator: Adobe Illustrator 23.0.2, SVG Export Plug-In . SVG Version: 6.00 Build 0)  -->
<svg version="1.1" id="Layer_1" xmlns="http://www.w3.org/2000/svg" xmlns:xlink="http://www.w3.org/1999/xlink" x="0px" y="0px"
	 viewBox="0 0 1920 1080" style="enable-background:new 0 0 1920 1080;" xml:space="preserve">
<style type="text/css">
	.st0{opacity:0;fill:#17748F;}
	.st1{fill:none;stroke:#663300;stroke-width:3.7;stroke-miterlimit:10;}
	.st2{fill:#FCD20E;}
	.st3{fill:#003594;}
	.st4{fill:#CF0821;}
	.st5{fill:#EACCB2;}
	.st6{fill:#FEDFC3;}
	.st7{fill:#FFFF0B;}
	.st8{fill:#5E4100;}
	.st9{fill:#EFC165;}
	.st10{fill:#020000;}
	.st11{fill:#1B196D;}
	.st12{fill:#D6D6D6;stroke:#000000;stroke-width:0.8115;stroke-miterlimit:10;}
	.st13{fill:#FF610D;}
	.st14{font-family:'MonotypeCorsiva';}
	.st15{font-size:150px;}
	.st16{font-size:180px;}
	.st17{fill:#00213D;}
	.st18{fill:#FCD559;}
	.st19{fill:#F9C9A5;}
	.st20{fill:#FCC79F;}
	.st21{fill:#FFFFFF;}
	.st22{fill:#00259B;}
	.st23{fill:#FFFEFD;}
	.st24{fill:#664436;}
	.st25{fill:#222223;}
	.st26{fill:none;stroke:#000000;stroke-width:3;stroke-miterlimit:10;}
	.st27{fill:none;stroke:#000000;stroke-miterlimit:10;}
	.st28{fill:#DFB28B;}
	.st29{fill:#B22F2F;}
	.st30{fill:#3B3B4F;}
	.st31{fill:#D79E73;}
	.st32{fill:#5C3828;}
	.st33{fill:#D8D8D8;}
	.st34{fill:#29525B;}
</style>
<rect x="0" y="0.81" class="st0" width="1920" height="1080.3"/>
<g>
	<line class="st1" x1="1114.43" y1="386.24" x2="1188.67" y2="258.71"/>
	
		<rect x="1158.39" y="289.9" transform="matrix(0.8642 0.5031 -0.5031 0.8642 334.9352 -573.7141)" class="st2" width="144.2" height="87.67"/>
	
		<rect x="1154.1" y="329.27" transform="matrix(0.8643 0.503 -0.503 0.8643 338.007 -570.5066)" class="st3" width="144.2" height="23.67"/>
	
		<rect x="1142.19" y="349.73" transform="matrix(0.8643 0.503 -0.503 0.8643 346.6836 -561.7377)" class="st4" width="144.2" height="23.67"/>
</g>
<g>
	<rect x="2525.76" y="164.2" class="st5" width="67.48" height="13.56"/>
	<path class="st6" d="M2524.09,104.55c0,4.85-1.3,10.26-4.86,10.26s-8.02-5.4-8.02-10.26c0-4.85,3.65-10.88,7.21-10.88
		S2524.09,99.7,2524.09,104.55z"/>
	<path class="st6" d="M2593.25,105.28c0,4.85,1.3,10.26,4.86,10.26s8.02-5.4,8.02-10.26c0-4.85-3.65-10.88-7.21-10.88
		S2593.25,100.43,2593.25,105.28z"/>
	<path class="st6" d="M2577.76,150.75h-36.53c-11.16,0-20.2-9.04-20.2-20.2V86.48c0-11.16,9.04-20.2,20.2-20.2h36.53
		c11.16,0,20.2,9.04,20.2,20.2v44.07C2597.96,141.7,2588.92,150.75,2577.76,150.75z"/>
	<path class="st7" d="M2612.94,79.77c1.42-2.18-2.14-3.47-2.14-3.47s4.46,0,4.89-7.16s-5.4-7.54-5.4-7.54s-0.69-4.65-4.46-5.44
		c-3.77-0.8-9.05,8.21-12.7,10.88c-3.65,2.68-17.5-1.72-18.96-7.87c-1.46-6.15-4.93-5.65-6.52-6.45c-1.59-0.8-6.26,2.43-6.26,2.43
		c-1.24-5.48-4.8-7.08-6.86-7.45c-2.06-0.38-3.52,2.34-3.52,2.34s-1.42-4.86-7.29-5.94c-5.88-1.09-7.21,4.19-7.21,4.19
		c-4.76-2.68-9.57,0.59-11.07,2.34c-1.5,1.76-1.03,8.71-1.03,8.71s-10.38-1.76-12.44,4.61c-2.06,6.36,1.12,11.64,1.12,11.64
		s-7.85,2.8-7.12,7.12c0.73,4.31,6.78,5.86,6.78,5.86c0.87,0.55,8.07,0.25,11.22,0.08c0.94-0.05,1.87-0.23,2.76-0.53
		c4.71-1.59,20.21-5.87,26.42-2.74c0,0,11.92,5.68,35.77,8.04C2613.46,95.85,2612.94,79.77,2612.94,79.77z"/>
	<g>
		<path class="st8" d="M2549.65,98.35c0,0-6.23-2.38-12.01,0.66C2537.64,99.01,2542.47,90.87,2549.65,98.35z"/>
		<ellipse cx="2544.89" cy="107.51" rx="4.76" ry="7.24"/>
	</g>
	<g>
		<path class="st8" d="M2580.13,100.03c0,0-5.29-3.99-11.71-2.67C2568.42,97.36,2575.43,90.88,2580.13,100.03z"/>
		<ellipse cx="2573.19" cy="107.56" rx="4.76" ry="7.24"/>
	</g>
	<ellipse class="st9" cx="2556.79" cy="124.71" rx="0.52" ry="0.5"/>
	<ellipse class="st9" cx="2561.95" cy="124.71" rx="0.52" ry="0.5"/>
	<path class="st10" d="M2550.02,137.08c0,0,10.36,5.16,18.3-0.02c0,0,2.53-0.79,1.22,1.18c-1.53,2.3-12.22,5.66-20.19,0.63
		C2549.35,138.87,2547.15,136.72,2550.02,137.08z"/>
	<rect x="2546.79" y="150.75" class="st5" width="26.39" height="13.45"/>
	<path d="M2510.12,163.64h101.11l6.14,0.03c5.74,0.03,10.77,3.73,12.35,9.1l13.17,44.81c0.47,1.59-0.68,3.19-2.38,3.31l-21.56,1.53
		l-8.45-26.14c-0.55-0.73-1.74-0.33-1.71,0.57l-4.72,104.7h-76.26h-10.69l-5.72-104.09c0-1.3-1.62-1.96-2.57-1.04l-19.57,19.03
		l-20.19-19.62l29.89-28.12C2502.05,165.09,2506.02,163.64,2510.12,163.64z"/>
	<path class="st11" d="M2520.07,301.55h79.6v96.32h-14.32v-66.46c0-7.42-6.19-13.43-13.82-13.43h-19.97
		c-7.75,0-14.03,6.11-14.03,13.64v18.09l30.64,29.42l-11.35,10.22l-30.28-29.44c-3.76-3.66-5.9-8.6-5.96-13.77L2520.07,301.55z"/>
	<path class="st12" d="M2575.63,387.31l-19.5,18.96c-0.19,0.18-0.49,0.18-0.68,0l0,0c-4.75-4.62-4.75-12.11,0-16.73l11.23-10.92
		c0.19-0.18,0.49-0.18,0.68,0l8.27,8.04C2575.82,386.83,2575.82,387.13,2575.63,387.31z"/>
	<path class="st12" d="M2585.87,409.07h27.61c0.26,0,0.47-0.21,0.47-0.47v0c0-6.54-5.3-11.83-11.83-11.83h-16.24
		c-0.26,0-0.47,0.21-0.47,0.47v11.37C2585.4,408.86,2585.61,409.07,2585.87,409.07z"/>
	<path class="st5" d="M2473.21,199.86l-23.01,22.37c-4.64,4.51-4.64,11.82,0,16.33l28.03,25.08l9.65-9.38l-19.64-21.55
		c-0.37-0.36-0.37-0.94,0-1.3l18.71-18.19L2473.21,199.86z"/>
	<path class="st5" d="M2640.33,220.89l6,21.4c0.83,2.95,1.24,5.99,1.24,9.04l-1.45,19.34h-14.25l-3.01-18.04
		c0-2.43-0.37-4.85-1.08-7.18l-7.14-23.14L2640.33,220.89z"/>
	<path class="st5" d="M2487.88,254.27c0,0,7.03-0.48,10,6.59c0,0-1.15,1.65-2.29,1.04c0,0-3.11-4.34-3.91-4.78
		c-0.8-0.44-0.38,0.3-0.38,0.3s6.2,7.61,5.56,8.37c0,0,1.09,9.6-8.3,8.37c-9.39-1.23-10.31-10.53-10.31-10.53L2487.88,254.27z"/>
	<path class="st5" d="M2632.27,269.71c0,0-4.78,1.23-2.14,11.56c0,0,1.78,1.3,2.13-0.95c0,0-0.78-5.11-0.55-5.98
		c0.15-0.56,0.49-0.05,0.49-0.05s1.27,9.63,2.28,9.72c0,0,6.31,7.46,11.96,0.07c5.65-7.39-0.54-14.53-0.54-14.53L2632.27,269.71z"/>
</g>
<g>
	<g>
	</g>
</g>
<text transform="matrix(1 0 0 1 749.9633 439.6475)" class="st13 st14 st15">Carlito’s</text>
<text transform="matrix(1 0 0 1 594.7582 577.9159)" class="st13 st14 st16">Adventures</text>
<g>
	<path class="st17" d="M1449.88,595.84c-27.51,0-55.01,0-82.52,0c-7.87,0-13.12-5.32-11.66-11.83c4.24-19.78,8.47-39.55,12.71-59.33
		c1.89-8.31,8.79-15.11,15.32-15.11c16.59,0,33.17,0,49.76,0c6.54,0,13.43,6.8,15.32,15.11c4.24,19.78,8.47,39.55,12.71,59.33
		C1463,590.52,1457.75,595.84,1449.88,595.84z"/>
	<circle class="st18" cx="1409.99" cy="431.09" r="62.09"/>
	<circle class="st6" cx="1348.43" cy="459.14" r="9.02"/>
	<g>
		<path class="st6" d="M1465.78,443.53c5.68,32.31-15.47,50.39-56.74,49.66c-41.26,0.73-62.42-17.35-56.74-49.66
			c4.24-32.09,25.4-51.56,56.74-51.01C1440.38,391.97,1461.54,411.44,1465.78,443.53z"/>
	</g>
	<path class="st19" d="M1347.38,455.34c2.87,0,5.2,2.33,5.2,5.2c0,0.68-0.13,1.33-0.37,1.92c0.77-0.91,1.24-2.08,1.24-3.36
		c0-2.87-2.33-5.2-5.2-5.2c-2.19,0-4.06,1.36-4.83,3.28C1344.37,456.05,1345.79,455.34,1347.38,455.34z"/>
	<circle class="st6" cx="1468.89" cy="458.18" r="9.02"/>
	<path class="st19" d="M1468.74,454.38c-2.87,0-5.2,2.33-5.2,5.2c0,0.68,0.13,1.33,0.37,1.92c-0.77-0.91-1.24-2.08-1.24-3.36
		c0-2.87,2.33-5.2,5.2-5.2c2.19,0,4.06,1.36,4.83,3.28C1471.76,455.09,1470.34,454.38,1468.74,454.38z"/>
	
		<ellipse transform="matrix(0.1911 -0.9816 0.9816 0.1911 659.3339 1720.7905)" class="st20" cx="1373.77" cy="460.34" rx="3.84" ry="8.46"/>
	<path class="st21" d="M1431.22,595.84h-45.2c-6.13,0-11.14-5.01-11.14-11.14v-65.87c0-6.13,5.01-11.14,11.14-11.14h45.2
		c6.13,0,11.14,5.01,11.14,11.14v65.87C1442.36,590.83,1437.34,595.84,1431.22,595.84z"/>
	
		<ellipse transform="matrix(0.9816 -0.1911 0.1911 0.9816 -61.361 284.5574)" class="st20" cx="1444.3" cy="460.34" rx="8.46" ry="3.84"/>
	<g>
		<path class="st6" d="M1417.17,507.7c-2.56,7.88-13.7,7.88-16.26,0c0.58-4.84,1.16-9.68,1.74-14.52c4.26,0,8.52,0,12.78,0
			C1416,498.02,1416.59,502.86,1417.17,507.7z"/>
	</g>
	<g>
		<circle class="st22" cx="1383.86" cy="444.89" r="6.88"/>
		<circle cx="1384.28" cy="445.61" r="3.8"/>
		<circle class="st23" cx="1381.79" cy="442.45" r="0.89"/>
		<circle class="st23" cx="1386.69" cy="448.7" r="0.45"/>
		<circle class="st22" cx="1434.21" cy="444.89" r="6.88"/>
		<circle cx="1434.64" cy="445.61" r="3.8"/>
		<circle class="st23" cx="1432.15" cy="442.45" r="0.89"/>
		<circle class="st23" cx="1437.05" cy="448.7" r="0.45"/>
		<path class="st24" d="M1386.4,432.46c0.22,0.12,0.42,0.24,0.62,0.38c-0.44-0.78-1.09-1.46-1.94-1.91
			c-2.35-1.25-5.28-0.36-6.53,1.99c-0.19,0.36-0.32,0.73-0.41,1.11C1380.14,431.68,1383.57,430.95,1386.4,432.46z"/>
		<path class="st24" d="M1433.01,431.42c-0.23,0.09-0.45,0.18-0.67,0.29c0.54-0.72,1.27-1.3,2.17-1.64c2.5-0.93,5.28,0.34,6.21,2.83
			c0.14,0.38,0.22,0.77,0.26,1.16C1439.32,431.47,1436.02,430.3,1433.01,431.42z"/>
	</g>
	<path class="st21" d="M1423.4,475.58c0,0-3.17,8.03-14.36,8.03c-13.05,0-14.36-8.03-14.36-8.03s7.13,0,15.06,0
		S1423.4,475.58,1423.4,475.58z"/>
	<path class="st18" d="M1476.89,395.9c1.7-2.61-2.57-4.17-2.57-4.17s5.35,0,5.87-8.59c0.51-8.59-6.49-9.04-6.49-9.04
		s-0.82-5.58-5.35-6.53c-4.53-0.95-10.86,9.85-15.24,13.06s-21.01-2.06-22.76-9.45c-1.75-7.39-5.92-6.78-7.83-7.74
		c-1.9-0.95-7.52,2.91-7.52,2.91c-1.49-6.58-5.77-8.49-8.24-8.94c-2.47-0.45-4.22,2.81-4.22,2.81s-1.7-5.83-8.75-7.13
		c-7.05-1.31-8.65,5.02-8.65,5.02c-5.71-3.22-11.48,0.7-13.28,2.81c-1.8,2.11-1.24,10.45-1.24,10.45s-12.46-2.11-14.93,5.53
		s1.34,13.97,1.34,13.97s-9.42,3.37-8.55,8.54c0.88,5.18,8.13,7.03,8.13,7.03c1.04,0.66,9.68,0.3,13.47,0.1
		c1.13-0.06,2.24-0.27,3.31-0.63c5.66-1.91,24.26-7.05,31.71-3.28c0,0,14.3,6.81,42.94,9.65
		C1477.51,415.19,1476.89,395.9,1476.89,395.9z"/>
	<rect x="1384.37" y="595.84" class="st25" width="12.74" height="42.02"/>
	<rect x="1420.96" y="595.84" class="st25" width="12.74" height="42.02"/>
	
		<rect x="1403.61" y="581.2" transform="matrix(-1.836970e-16 1 -1 -1.836970e-16 2012.2006 -807.7734)" class="st25" width="12.74" height="42.02"/>
	<path class="st21" d="M1392.55,652.89h-16.01c-2.52,0-4.56-2.04-4.56-4.56l0,0c0-5.78,4.69-10.47,10.47-10.47h14.66v10.47
		C1397.11,650.85,1395.07,652.89,1392.55,652.89z"/>
	<path class="st21" d="M1425.52,652.89h16.01c2.52,0,4.56-2.04,4.56-4.56l0,0c0-5.78-4.69-10.47-10.47-10.47h-14.66v10.47
		C1420.96,650.85,1423,652.89,1425.52,652.89z"/>
	<line class="st26" x1="1416.3" y1="528.2" x2="1430.84" y2="528.2"/>
</g>
<g>
	<line class="st27" x1="571.45" y1="469.02" x2="671.96" y2="210.15"/>
	<line class="st27" x1="571.45" y1="469.02" x2="404.08" y2="252.34"/>
	<line class="st27" x1="571.45" y1="469.02" x2="468.54" y2="222.12"/>
	<line class="st27" x1="571.45" y1="469.02" x2="550.4" y2="204.54"/>
	<line class="st27" x1="571.45" y1="469.02" x2="619.34" y2="200.78"/>
	<line class="st27" x1="571.45" y1="469.02" x2="367.93" y2="287.7"/>
	
		<rect x="604.88" y="390.48" transform="matrix(-0.9044 -0.4266 0.4266 -0.9044 981.5442 1062.2927)" class="st28" width="9.76" height="61.45"/>
	
		<ellipse transform="matrix(0.0626 -0.998 0.998 0.0626 195.3444 988.7357)" class="st28" cx="624.01" cy="390.38" rx="8.25" ry="9.69"/>
	
		<rect x="510.52" y="414.56" transform="matrix(0.611 -0.7916 0.7916 0.611 -152.0023 581.2321)" class="st28" width="9.76" height="61.45"/>
	<path class="st29" d="M523.17,436.82c26.65-6.8,53.3-13.6,79.96-20.39c7.63-1.95,14.03,1.91,14.22,8.58
		c0.78,20.21,1.56,40.42,2.35,60.63c0.22,8.52-4.78,16.81-11.11,18.43c-16.07,4.1-32.14,8.2-48.21,12.3
		c-6.33,1.62-14.7-3.27-18.58-10.85c-8.99-18.11-17.99-36.23-26.98-54.34C511.77,445.22,515.54,438.77,523.17,436.82z"/>
	<path class="st30" d="M606.36,504.62l-43.79,11.17c-5.94,1.51-12.03-2.1-13.55-8.04l-16.28-63.82c-1.51-5.94,2.1-12.03,8.04-13.55
		l43.79-11.17c5.94-1.51,12.03,2.1,13.55,8.04l16.28,63.82C615.91,497.01,612.3,503.11,606.36,504.62z"/>
	<g>
		<path d="M605.39,332.05c11.04,36.76,0.03,69.46-43.69,74.65c-21.19,3.16-43.87,2.28-59.32-3.88
			c-15.79-6.15-24.36-17.57-25.31-35.16c-1.03-23.3,8.47-48.11,23.71-62.15c0.39-0.36,0.78-0.71,1.19-1.08
			c5.02-4.8,6.35-9.85,13.25-8.73c0.25-0.11,0.49-0.23,0.74-0.34c1.25-0.58,2.53-1.13,3.84-1.63c0.44-0.17,0.88-0.34,1.39-0.59
			c6.41-2.6,6.76-14.97,14.72-12.11c1.92,0.48-1.41,5.07,0.32,8.41c0,0,0.84-0.21,0.9-0.06c0.39-0.01,0.82-0.06,1.25-0.11
			c1.28-0.14,2.56-0.25,3.84-0.33c0.47-0.03,0.94-0.05,1.42-0.07c5.89-0.08,11.44-3.58,16.95,0.3c0.44-0.19,0.91-0.34,1.37-0.47
			c5.53-1.48,9.18,0.92,13.27,5.96c0.45,0.21,0.91,0.43,1.35,0.66C590.01,301.96,599.97,314.44,605.39,332.05z"/>
	</g>
	<circle class="st28" cx="491.92" cy="392.6" r="9.02"/>
	<g>
		<path class="st28" d="M600.21,346.97c8.86,30.97-0.12,59.17-38.11,63.94c-18.41,2.86-38.16,2.18-51.43-3.04
			c-13.6-5.21-20.71-14.96-21.35-29.89c-0.35-30.69,16.11-59.64,45.35-65.14c8.49-1.93,17.1-2.26,25.05-1.22
			c0.53,0.07,1.06,0.15,1.58,0.23c3.43,1.34,7.72-0.08,10.49,2.68c0.47,0.18,0.94,0.36,1.4,0.54
			C586.22,320.18,595.49,330.96,600.21,346.97z"/>
	</g>
	<path class="st31" d="M489.96,389.17c2.78-0.71,5.62,0.97,6.33,3.75c0.17,0.66,0.2,1.32,0.12,1.95c0.52-1.07,0.68-2.32,0.37-3.56
		c-0.71-2.78-3.54-4.46-6.33-3.75c-2.12,0.54-3.6,2.32-3.87,4.37C487.22,390.61,488.42,389.57,489.96,389.17z"/>
	<circle class="st28" cx="608.4" cy="361.9" r="9.02"/>
	<path class="st31" d="M607.32,358.25c-2.78,0.71-4.46,3.54-3.75,6.33c0.17,0.66,0.46,1.25,0.84,1.77
		c-0.97-0.69-1.71-1.71-2.03-2.95c-0.71-2.78,0.97-5.62,3.75-6.33c2.12-0.54,4.27,0.31,5.49,1.98
		C610.42,358.19,608.86,357.85,607.32,358.25z"/>
	
		<ellipse transform="matrix(0.9984 -0.0574 0.0574 0.9984 -21.3832 30.291)" class="st31" cx="516.77" cy="387.49" rx="8.46" ry="3.84"/>
	
		<ellipse transform="matrix(0.9039 -0.4278 0.4278 0.9039 -102.0701 285.8893)" class="st31" cx="585.11" cy="370.06" rx="8.46" ry="3.84"/>
	<g>
		<path class="st28" d="M570.31,422.88c-2.51,7.28-10.84,11.26-16.33,8.24c-0.73-7.08-0.93-13.64-1.33-18.72
			c4.1,0.35,9-2.08,12.81-3.59C567.1,414.73,569.02,419.74,570.31,422.88z"/>
	</g>
	<g>
		<circle class="st32" cx="521.04" cy="369.25" r="7.31"/>
		<circle cx="521.67" cy="369.88" r="4.04"/>
		<circle class="st23" cx="518.27" cy="367.27" r="0.95"/>
		<circle class="st23" cx="524.97" cy="372.42" r="0.47"/>
		<circle class="st32" cx="572.9" cy="356.02" r="7.31"/>
		<circle cx="573.53" cy="356.65" r="4.04"/>
		<circle class="st23" cx="570.13" cy="354.05" r="0.95"/>
		<circle class="st23" cx="576.83" cy="359.19" r="0.47"/>
		<path class="st32" d="M517.02,354.19c0.25-0.06,0.51-0.11,0.76-0.15c-0.9-0.3-1.9-0.37-2.89-0.11c-2.75,0.7-4.4,3.49-3.7,6.24
			c0.11,0.42,0.28,0.8,0.47,1.17C511.55,358.06,513.71,355.04,517.02,354.19z"/>
		<path class="st32" d="M569.8,340.73c-0.25,0.06-0.5,0.14-0.74,0.23c0.65-0.7,1.49-1.23,2.48-1.48c2.75-0.7,5.54,0.96,6.24,3.7
			c0.11,0.42,0.14,0.84,0.14,1.25C576.46,341.51,573.1,339.89,569.8,340.73z"/>
	</g>
	
		<ellipse transform="matrix(0.969 -0.2472 0.2472 0.969 -80.4921 149.477)" class="st21" cx="555.17" cy="395.37" rx="7.79" ry="10.25"/>
	<path d="M573.24,290.42c5.42,6.59,1.43,15.23,6.5,21.65c0.29,0.21,0.59,0.43,0.89,0.65c0.91,0.65,1.86,1.31,2.55,1.99
		c0.43,0.3,0.86,0.61,1.29,0.92c0.43,0.31,0.86,0.62,1.29,0.94s0.84,0.64,1.26,0.97c2.1,1.53,4.23,3.18,6.05,5.06
		c0.37,0.38,0.72,0.76,1.06,1.16c5.96,4.69,7.93,12.44,9.55,20.03c0.1,0.57,0.18,1.15,0.26,1.73c0.74,5.81,0.33,11.79-1.26,17.36
		c-0.75-4.28-1.15-9-1.94-13.59c-0.1-0.57-0.2-1.15-0.32-1.72c-2.95-9.17-9.53-14.71-16.5-20.78c-0.45-0.25-0.9-0.51-1.35-0.76
		c-5.82-3.3-11.62-6.66-19.11-6.57c-0.31,0.06-0.61,0.13-0.92,0.2c-0.31,0.08-0.62,0.16-0.94,0.25c-0.29,0.16-0.59,0.32-0.89,0.48
		c-3.46,1.82-7.39,3.54-11.67,5.09c-0.53,0.19-1.04,0.38-1.41,0.56c-3.97,3.7-9.79,5.18-16.24,5.17c-0.51,0.02-1.03,0.03-1.56,0.04
		c-1.07,0.02-2.2,0.01-3.42,0c-0.53,0.08-1.05,0.16-1.58,0.23c-3.13,0.43-6.14,0.7-8.98,0.82c-0.35,0.01-0.7,0.03-1.04,0.04
		c-0.6-0.04-1.19-0.05-1.78-0.05c-0.59,0.01-1.17,0.03-1.75,0.08c-0.58,0.2-1.14,0.41-1.7,0.63s-1.1,0.46-1.63,0.71
		c-8.47,4.05-12.08,10.56-14.41,17.82c-0.18,0.56-0.35,1.12-0.52,1.69c-1.61,3.32-2.27,6.69-2.53,10.11
		c-0.04,0.57-0.07,1.14-0.1,1.72c-1.67,8.31,2.25,15.57,7.13,22.58c-9.69,2.47-10.98-14.74-10.19-22.2
		c0.01-0.53,0.02-1.06,0.03-1.59c0.02-2.64-0.1-5.24-0.65-7.75c-0.19-0.57-0.44-1.1-0.74-1.62c0.22,0.46,0.4,0.92,0.54,1.41
		c0.27,2.84,0.34,5.94,0.38,9.13c0.01,0.53,0.01,1.07,0.02,1.61c-0.36,6.28,1.12,12.09,2.6,17.91c0.46-6.31-2.97-11.63-2.44-17.94
		c-0.06-0.53-0.12-1.06-0.18-1.57c-0.36-3.11-0.69-6.15-0.73-9.04c-0.1-0.51-0.23-1.01-0.38-1.52c-0.45-1.5-1.09-3.01-2.01-4.58
		c-0.74-2.91,0.7-5.34,1.85-8.45c0.23-0.47,0.48-0.93,0.75-1.38c1.59-2.68,3.72-5.05,6-7.39c0.29-0.4,0.55-0.8,0.79-1.19
		c0.24-0.39,0.46-0.79,0.66-1.18c0.06-0.52,0.05-1.03-0.02-1.53c-0.07-0.5-0.2-1-0.39-1.49c-0.19-0.28-0.37-0.54-0.54-0.8
		c-0.33-0.52-0.57-1.07-0.72-1.66c-0.57-2.25,0.3-4.75,2.36-7.3c0.29-0.37,0.61-0.73,0.95-1.1c0.32-0.4,0.66-0.81,1.01-1.23
		c0.4-2.02,0.76-4.18,1.21-6.34c0.11-0.54,0.23-1.08,0.36-1.63c2.4-9.28,7.82-16.37,17.79-21.77c-1.99,4.32-8.04,4.91-10.03,9.23
		c0.23,0.89,0.46,1.79,1.65,2.44c-1.82-7.15,8.78-6.05,9.35-11.91c0.91,3.58-5.64,6.2-2.28,7.25c1.5,0.81,3.04-1.37,4.54-3.74
		c0.3-0.47,0.6-0.95,0.9-1.42c3.16-5.61,10.23-10.27,17.18-7.28c-1.2-0.65-1.43-1.54-0.68-2.68c0.91,3.58,5.02,3.48,6.1,0.64
		c0.32-0.25,0.65-0.47,1-0.62c0.35-0.15,0.72-0.23,1.11-0.21c0.23,0.89,3.59,1.94,0.91,3.58c0.74-1.14,0.28-2.93,0.06-3.82
		c1.57,0.08,2.69,0.44,3.47,1.01c0.39,0.28,0.68,0.61,0.93,0.98c0.91,1.07,1,2.18,0.67,3.31c-0.11,0.37-0.26,0.75-0.45,1.13
		c-0.62,1.14-0.62,1.14-1.36,2.28c3.14,0.15,4.39-3.02,6.59-5.01c0.33-0.42,0.65-0.81,0.97-1.17c1.28-1.41,2.5-2.1,4.12-0.61
		c0.41,0.44,0.56,1.04,0.55,1.76c0,0.36-0.05,0.75-0.11,1.16c-0.04,2.69,2.81,5.77,2.58,9.03c-0.02,0.38-0.07,0.78-0.11,1.18
		c-0.12,1.22-0.14,2.48,0.92,3.29c0.22,0.46,0.5,0.94,0.84,1.42c0.32,0.06,0.62,0.12,0.92,0.16c2.56,1.81,1.65-1.76,2.62-2.01
		c-1.65-2.44-1.37-5.37,1.31-7c0.97-0.25,1.94-0.49,2.48,1.57C572.79,289.63,573.01,290,573.24,290.42z"/>
	
		<rect x="564.25" y="514.24" transform="matrix(0.969 -0.2472 0.2472 0.969 -113.286 157.4736)" class="st33" width="12.74" height="31.5"/>
	
		<rect x="599.71" y="505.2" transform="matrix(0.969 -0.2472 0.2472 0.969 -109.9507 165.9566)" class="st33" width="12.74" height="31.5"/>
	
		<rect x="580.59" y="495.14" transform="matrix(0.2472 0.969 -0.969 0.2472 942.0253 -180.17)" class="st33" width="12.74" height="42.02"/>
	
		<ellipse transform="matrix(0.8601 -0.5102 0.5102 0.8601 -148.0964 308.6667)" class="st28" cx="488.67" cy="424.32" rx="9.69" ry="8.25"/>
	<path class="st13" d="M367.93,287.7l-74.28-58.97c0,0,9.75-60.67,70.82-46.72l40.85,70.05
		C405.33,252.05,375.56,256.65,367.93,287.7z"/>
	<path class="st34" d="M405.29,252.04l-40.82-70.03c0,0,43.83-64.21,91.53-37.27l12.53,77.39
		C468.54,222.12,425.3,225.96,405.29,252.04z"/>
	<path class="st13" d="M468.54,222.12l-12.53-77.39c0,0,29.1-55.57,101.19-11.77l-6.8,71.57
		C550.4,204.54,496.82,202.7,468.54,222.12z"/>
	<path class="st34" d="M550.4,204.54l6.8-71.57c0,0,57.17-52.6,86.97-9.36l-24.83,77.17C619.34,200.78,578.69,185.11,550.4,204.54z"
		/>
	<path class="st13" d="M619.34,200.78l24.83-77.17c0,0,65.16-20.88,78.34,27.22l-50.55,59.33
		C671.96,210.15,653.05,192.12,619.34,200.78z"/>
	<path class="st21" d="M568.34,546.83l12.35-3.15c0,0,12.8,10.59,0,14.52C580.69,558.2,560.04,565.84,568.34,546.83z"/>
	<path class="st21" d="M603.59,537.79l12.35-3.15c0,0,12.8,10.59,0,14.52C615.93,549.15,595.28,556.8,603.59,537.79z"/>
</g>
</svg>
